<?xml version="1.0" encoding="UTF-8" standalone="no"?>
<svg
   xmlns:dc="http://purl.org/dc/elements/1.1/"
   xmlns:cc="http://creativecommons.org/ns#"
   xmlns:rdf="http://www.w3.org/1999/02/22-rdf-syntax-ns#"
   xmlns:svg="http://www.w3.org/2000/svg"
   xmlns="http://www.w3.org/2000/svg"
   xmlns:sodipodi="http://sodipodi.sourceforge.net/DTD/sodipodi-0.dtd"
   xmlns:inkscape="http://www.inkscape.org/namespaces/inkscape"
   width="22.654325"
   height="23"
   viewBox="0 0 22.654325 23"
   preserveAspectRatio="xMidYMid"
   style="display:block"
   version="1.1"
   id="svg74"
   sodipodi:docname="spinner.svg"
   inkscape:version="0.92.3 (2405546, 2018-03-11)">
  <metadata
     id="metadata80">
    <rdf:RDF>
      <cc:Work
         rdf:about="">
        <dc:format>image/svg+xml</dc:format>
        <dc:type
           rdf:resource="http://purl.org/dc/dcmitype/StillImage" />
        <dc:title></dc:title>
      </cc:Work>
    </rdf:RDF>
  </metadata>
  <defs
     id="defs78" />
  <sodipodi:namedview
     pagecolor="#ffffff"
     bordercolor="#666666"
     borderopacity="1"
     objecttolerance="10"
     gridtolerance="10"
     guidetolerance="10"
     inkscape:pageopacity="0"
     inkscape:pageshadow="2"
     inkscape:window-width="1920"
     inkscape:window-height="1020"
     id="namedview76"
     showgrid="false"
     fit-margin-top="0"
     fit-margin-left="0"
     fit-margin-right="0"
     fit-margin-bottom="0"
     inkscape:zoom="6.675088"
     inkscape:cx="34.604901"
     inkscape:cy="10.14244"
     inkscape:window-x="0"
     inkscape:window-y="32"
     inkscape:window-maximized="1"
     inkscape:current-layer="svg74" />
  <g
     id="g4"
     transform="translate(-38.672837,-38.5)">
    <rect
       x="49.5"
       y="38.5"
       rx="0.5"
       ry="2.0999999"
       width="1"
       height="7"
       style="opacity:0.05555462;fill:#ffb600"
       id="rect2" />
  </g>
  <g
     transform="rotate(20,139.83576,-78.912278)"
     id="g8">
    <rect
       x="49.5"
       y="38.5"
       rx="0.5"
       ry="2.0999999"
       width="1"
       height="7"
       style="opacity:0.11111103;fill:#ffb600"
       id="rect6" />
  </g>
  <g
     transform="rotate(40,83.552522,-22.376373)"
     id="g12">
    <rect
       x="49.5"
       y="38.5"
       rx="0.5"
       ry="2.0999999"
       width="1"
       height="7"
       style="opacity:0.16666703;fill:#ffb600"
       id="rect10" />
  </g>
  <g
     transform="rotate(60,64.00556,-2.7416591)"
     id="g16">
    <rect
       x="49.5"
       y="38.5"
       rx="0.5"
       ry="2.0999999"
       width="1"
       height="7"
       style="opacity:0.22222302;fill:#ffb600"
       id="rect14" />
  </g>
  <g
     transform="rotate(80,53.604838,7.7057539)"
     id="g20">
    <rect
       x="49.5"
       y="38.5"
       rx="0.5"
       ry="2.0999999"
       width="1"
       height="7"
       style="opacity:0.27777698;fill:#ffb600"
       id="rect18" />
  </g>
  <g
     transform="rotate(100,46.816249,14.524818)"
     id="g24">
    <rect
       x="49.5"
       y="38.5"
       rx="0.5"
       ry="2.0999999"
       width="1"
       height="7"
       style="opacity:0.33333297;fill:#ffb600"
       id="rect22" />
  </g>
  <g
     transform="rotate(120,41.777574,19.586114)"
     id="g28">
    <rect
       x="49.5"
       y="38.5"
       rx="0.5"
       ry="2.0999999"
       width="1"
       height="7"
       style="opacity:0.38888909;fill:#ffb600"
       id="rect26" />
  </g>
  <g
     transform="rotate(140,37.670009,23.712119)"
     id="g32">
    <rect
       x="49.5"
       y="38.5"
       rx="0.5"
       ry="2.0999999"
       width="1"
       height="7"
       style="opacity:0.44444401;fill:#ffb600"
       id="rect30" />
  </g>
  <g
     transform="rotate(160,34.057876,27.340468)"
     id="g36">
    <rect
       x="49.5"
       y="38.5"
       rx="0.5"
       ry="2.0999999"
       width="1"
       height="7"
       style="opacity:0.5;fill:#ffb600"
       id="rect34" />
  </g>
  <g
     transform="rotate(180,30.663582,30.75)"
     id="g40">
    <rect
       x="49.5"
       y="38.5"
       rx="0.5"
       ry="2.0999999"
       width="1"
       height="7"
       style="opacity:0.55555599;fill:#ffb600"
       id="rect38" />
  </g>
  <g
     transform="rotate(-160,27.269287,34.159532)"
     id="g44">
    <rect
       x="49.5"
       y="38.5"
       rx="0.5"
       ry="2.0999999"
       width="1"
       height="7"
       style="opacity:0.61111199;fill:#ffb600"
       id="rect42" />
  </g>
  <g
     transform="rotate(-140,23.657155,37.787881)"
     id="g48">
    <rect
       x="49.5"
       y="38.5"
       rx="0.5"
       ry="2.0999999"
       width="1"
       height="7"
       style="opacity:0.66666697;fill:#ffb600"
       id="rect46" />
  </g>
  <g
     transform="rotate(-120,19.549589,41.913886)"
     id="g52">
    <rect
       x="49.5"
       y="38.5"
       rx="0.5"
       ry="2.0999999"
       width="1"
       height="7"
       style="opacity:0.72222296;fill:#ffb600"
       id="rect50" />
  </g>
  <g
     transform="rotate(-100,14.510914,46.975182)"
     id="g56">
    <rect
       x="49.5"
       y="38.5"
       rx="0.5"
       ry="2.0999999"
       width="1"
       height="7"
       style="opacity:0.77777889;fill:#ffb600"
       id="rect54" />
  </g>
  <g
     transform="rotate(-80,7.7223249,53.794246)"
     id="g60">
    <rect
       x="49.5"
       y="38.5"
       rx="0.5"
       ry="2.0999999"
       width="1"
       height="7"
       style="opacity:0.83333303;fill:#ffb600"
       id="rect58" />
  </g>
  <g
     transform="rotate(-60,-2.6783964,64.241659)"
     id="g64">
    <rect
       x="49.5"
       y="38.5"
       rx="0.5"
       ry="2.0999999"
       width="1"
       height="7"
       style="opacity:0.88888903;fill:#ffb600"
       id="rect62" />
  </g>
  <g
     transform="rotate(-40,-22.225359,83.876373)"
     id="g68">
    <rect
       x="49.5"
       y="38.5"
       rx="0.5"
       ry="2.0999999"
       width="1"
       height="7"
       style="opacity:0.94444502;fill:#ffb600"
       id="rect66" />
  </g>
  <g
     transform="rotate(-20,-78.508593,140.41228)"
     id="g72">
    <rect
       x="49.5"
       y="38.5"
       rx="0.5"
       ry="2.0999999"
       width="1"
       height="7"
       style="opacity:1;fill:#ffb600"
       id="rect70" />
  </g>
  <!-- generated by https://loading.io/ -->
</svg>
